<?xml version="1.0" standalone="no"?>
<!DOCTYPE svg PUBLIC "-//W3C//DTD SVG 20010904//EN"
 "http://www.w3.org/TR/2001/REC-SVG-20010904/DTD/svg10.dtd">
<svg version="1.0" xmlns="http://www.w3.org/2000/svg"
 width="700.000000pt" height="700.000000pt" viewBox="0 0 700.000000 700.000000"
 preserveAspectRatio="xMidYMid meet">
<metadata>
Created by potrace 1.11, written by Peter Selinger 2001-2013
</metadata>
<g transform="translate(0.000000,700.000000) scale(0.100000,-0.100000)"
fill="#000000" stroke="none">
<path d="M0 6759 c0 -211 2 -240 15 -235 46 17 159 28 244 23 210 -12 409
-114 527 -270 179 -237 202 -545 59 -804 -49 -88 -187 -226 -272 -271 -171
-90 -394 -117 -556 -66 -16 5 -17 -122 -17 -2565 l0 -2571 679 0 679 0 -15 48
c-23 69 -22 250 1 327 51 172 176 321 327 393 107 51 160 63 274 63 113 0 167
-12 271 -62 161 -76 281 -224 329 -405 25 -95 20 -268 -11 -347 -6 -16 145
-17 2230 -17 l2236 0 0 3500 0 3500 -3500 0 -3500 0 0 -241z m6075 -424 c175
-45 338 -177 413 -335 51 -108 65 -170 64 -284 -2 -174 -59 -314 -181 -436
-89 -91 -176 -142 -286 -170 -223 -57 -450 4 -612 166 -181 180 -233 449 -134
694 67 165 224 304 401 357 92 27 246 31 335 8z m-3529 -815 c242 -118 228
-486 -23 -580 -230 -86 -465 110 -421 350 17 93 64 162 145 213 59 37 99 47
179 43 49 -2 86 -10 120 -26z m1916 -1142 c100 -43 178 -167 178 -283 0 -111
-69 -222 -171 -277 -37 -19 -59 -23 -139 -23 -80 0 -102 4 -139 23 -221 118
-228 428 -11 546 90 49 189 54 282 14z m-3030 -1675 c237 -111 310 -418 147
-621 -127 -161 -368 -202 -538 -93 -121 78 -191 204 -191 345 0 118 37 209
116 289 120 122 308 154 466 80z m3746 -99 c152 -30 324 -133 430 -257 177
-206 229 -495 136 -761 -144 -413 -614 -622 -1023 -454 -374 153 -557 555
-436 958 55 185 203 359 381 448 47 24 186 69 229 75 74 10 212 6 283 -9z"/>
</g>
</svg>
